<?xml version="1.0" encoding="UTF-8" standalone="no"?>
<!-- Created with Inkscape (http://www.inkscape.org/) -->
<svg xmlns:inkscape="http://www.inkscape.org/namespaces/inkscape" xmlns:rdf="http://www.w3.org/1999/02/22-rdf-syntax-ns#" xmlns="http://www.w3.org/2000/svg" xmlns:cc="http://creativecommons.org/ns#" xmlns:dc="http://purl.org/dc/elements/1.1/" xmlns:sodipodi="http://sodipodi.sourceforge.net/DTD/sodipodi-0.dtd" xmlns:svg="http://www.w3.org/2000/svg" xmlns:ns1="http://sozi.baierouge.fr" xmlns:xlink="http://www.w3.org/1999/xlink" id="svg3195" sodipodi:docname="Arrow set (Blur) Down.svg" inkscape:export-filename="C:\Documents and Settings\Dan\Skrivbord\Clipart egna (InkScape)\Original\Kanske Upload\Arrow set (Blur).png" viewBox="0 0 151 236.71" sodipodi:version="0.32" inkscape:export-xdpi="310" version="1.0" inkscape:output_extension="org.inkscape.output.svg.inkscape" inkscape:export-ydpi="310" inkscape:version="0.45.1+0.46pre1+devel">
  <defs id="defs3197">
    <filter id="filter3661" height="1.6049" width="1.6049" y="-.30244" x="-.30244" inkscape:collect="always">
      <feGaussianBlur id="feGaussianBlur3663" stdDeviation="2.428404" inkscape:collect="always"/>
    </filter>
    <filter id="filter3870" height="1.2673" width="1.1661" y="-.13364" x="-.083048" inkscape:collect="always">
      <feGaussianBlur id="feGaussianBlur3872" stdDeviation="7.1645205" inkscape:collect="always"/>
    </filter>
  </defs>
  <sodipodi:namedview id="base" bordercolor="#666666" inkscape:pageshadow="2" guidetolerance="10" pagecolor="#ffffff" gridtolerance="10000" inkscape:window-height="838" inkscape:zoom="0.7" objecttolerance="10" showgrid="false" borderopacity="1.0" inkscape:current-layer="layer1" inkscape:cx="550.64776" inkscape:cy="258.25133" inkscape:window-y="-4" inkscape:window-x="-4" inkscape:window-width="1152" inkscape:pageopacity="0.0" inkscape:document-units="px"/>
  <g id="layer1" inkscape:label="Layer 1" inkscape:groupmode="layer" transform="translate(-170.43 -330.93)">
    <g id="g3923" transform="matrix(0 1 -1 0 693.43 -154.07)">
      <path id="path3925" sodipodi:nodetypes="cccccccc" style="fill-rule:evenodd;filter:url(#filter3870);stroke:#002727;stroke-width:3.662;fill:#1a46ff" d="m504.02 476.86c49.65 7.6 94.12 9.02 136.64 0l-8.03 33c28.97-17.81 69.1-37.72 74.78-65.12-5.37-27.61-48.52-43.91-77.17-59.88l9.81 30.45c-43.87-13.63-89.48-10.05-135.72 0l-0.31 61.55z"/>
      <path id="path3927" sodipodi:nodetypes="cccccccc" style="fill-rule:evenodd;stroke:#002727;stroke-width:3.662;fill:#1a46ff" d="m504.02 477.57c49.65 7.6 94.12 9.03 136.64 0l-8.03 33.01c28.97-17.81 69.1-37.72 74.78-65.12-5.37-27.61-48.52-43.92-77.17-59.88l9.81 30.44c-43.87-13.63-89.48-10.04-135.72 0l-0.31 61.55z"/>
      <path id="path3929" style="opacity:.95455;stroke-linejoin:round;filter:url(#filter3661);stroke:#000000;stroke-width:2.3;fill:#7e97ff" d="m527.93 429.33c0 4.69-3.8 8.49-8.48 8.49-4.69 0-8.49-3.8-8.49-8.49 0-4.68 3.8-8.48 8.49-8.48 4.68 0 8.48 3.8 8.48 8.48z"/>
      <path id="path3931" style="opacity:.95455;stroke-linejoin:round;filter:url(#filter3661);stroke:#000000;stroke-width:2.3;fill:#7e97ff" d="m527.93 461.86c0 4.68-3.8 8.48-8.48 8.48-4.69 0-8.49-3.8-8.49-8.48 0-4.69 3.8-8.49 8.49-8.49 4.68 0 8.48 3.8 8.48 8.49z"/>
      <path id="path3933" style="opacity:.95455;stroke-linejoin:round;filter:url(#filter3661);stroke:#000000;stroke-width:2.3;fill:#7e97ff" d="m561.17 427.21c0 4.68-3.8 8.49-8.49 8.49-4.68 0-8.48-3.81-8.48-8.49s3.8-8.48 8.48-8.48c4.69 0 8.49 3.8 8.49 8.48z"/>
      <path id="path3935" style="opacity:.95455;stroke-linejoin:round;filter:url(#filter3661);stroke:#000000;stroke-width:2.3;fill:#7e97ff" d="m561.87 465.39c0 4.69-3.8 8.49-8.48 8.49-4.69 0-8.49-3.8-8.49-8.49 0-4.68 3.8-8.48 8.49-8.48 4.68 0 8.48 3.8 8.48 8.48z"/>
      <path id="path3937" style="opacity:.95455;stroke-linejoin:round;filter:url(#filter3661);stroke:#000000;stroke-width:2.3;fill:#7e97ff" d="m595.81 425.8c0 4.68-3.8 8.48-8.48 8.48s-8.49-3.8-8.49-8.48c0-4.69 3.81-8.49 8.49-8.49s8.48 3.8 8.48 8.49z"/>
      <path id="path3939" style="opacity:.95455;stroke-linejoin:round;filter:url(#filter3661);stroke:#000000;stroke-width:2.3;fill:#7e97ff" d="m596.52 466.1c0 4.69-3.8 8.49-8.48 8.49-4.69 0-8.49-3.8-8.49-8.49 0-4.68 3.8-8.48 8.49-8.48 4.68 0 8.48 3.8 8.48 8.48z"/>
      <path id="path3941" style="opacity:.95455;stroke-linejoin:round;filter:url(#filter3661);stroke:#000000;stroke-width:2.3;fill:#7e97ff" d="m631.17 428.62c0 4.69-3.8 8.49-8.49 8.49-4.68 0-8.48-3.8-8.48-8.49 0-4.68 3.8-8.48 8.48-8.48 4.69 0 8.49 3.8 8.49 8.48z"/>
      <path id="path3943" style="opacity:.95455;stroke-linejoin:round;filter:url(#filter3661);stroke:#000000;stroke-width:2.3;fill:#7e97ff" d="m631.85 463.27c0 4.69-3.8 8.49-8.49 8.49-4.68 0-8.48-3.8-8.48-8.49 0-4.68 3.8-8.48 8.48-8.48 4.69 0 8.49 3.8 8.49 8.48z"/>
      <path id="path3945" style="opacity:.95455;stroke-linejoin:round;filter:url(#filter3661);stroke:#000000;stroke-width:2.3;fill:#7e97ff" d="m660.87 412.36c0 4.68-3.8 8.49-8.49 8.49-4.68 0-8.48-3.81-8.48-8.49s3.8-8.48 8.48-8.48c4.69 0 8.49 3.8 8.49 8.48z"/>
      <path id="path3947" style="opacity:.95455;stroke-linejoin:round;filter:url(#filter3661);stroke:#000000;stroke-width:2.3;fill:#7e97ff" d="m662.99 483.78c0 4.68-3.8 8.48-8.49 8.48-4.68 0-8.48-3.8-8.48-8.48s3.8-8.49 8.48-8.49c4.69 0 8.49 3.81 8.49 8.49z"/>
      <path id="path3949" style="opacity:.95455;stroke-linejoin:round;filter:url(#filter3661);stroke:#000000;stroke-width:2.3;fill:#7e97ff" d="m661.55 448.44c0 4.68-3.8 8.48-8.48 8.48s-8.49-3.8-8.49-8.48c0-4.69 3.81-8.49 8.49-8.49s8.48 3.8 8.48 8.49z"/>
      <path id="path3951" style="opacity:.95455;stroke-linejoin:round;filter:url(#filter3661);stroke:#000000;stroke-width:2.3;fill:#7e97ff" d="m691.27 431.45c0 4.69-3.8 8.49-8.48 8.49s-8.49-3.8-8.49-8.49c0-4.68 3.81-8.48 8.49-8.48s8.48 3.8 8.48 8.48z"/>
      <path id="path3953" style="opacity:.95455;stroke-linejoin:round;filter:url(#filter3661);stroke:#000000;stroke-width:2.3;fill:#7e97ff" d="m693.4 457.62c0 4.68-3.81 8.48-8.49 8.48s-8.49-3.8-8.49-8.48c0-4.69 3.81-8.49 8.49-8.49s8.49 3.8 8.49 8.49z"/>
    </g>
  </g>
  <metadata>
    <rdf:RDF>
      <cc:Work>
        <dc:format>image/svg+xml</dc:format>
        <dc:type rdf:resource="http://purl.org/dc/dcmitype/StillImage"/>
        <cc:license rdf:resource="http://creativecommons.org/licenses/publicdomain/"/>
        <dc:publisher>
          <cc:Agent rdf:about="http://openclipart.org/">
            <dc:title>Openclipart</dc:title>
          </cc:Agent>
        </dc:publisher>
        <dc:title>Arrow set (Blur)</dc:title>
        <dc:date>2008-02-25T19:34:32</dc:date>
        <dc:description>A Arrow set with Blur and dots.. Enjoy!   ;-)</dc:description>
        <dc:source>https://openclipart.org/detail/14883/arrow-set-(blur)-by-mystica-14883</dc:source>
        <dc:creator>
          <cc:Agent>
            <dc:title>mystica</dc:title>
          </cc:Agent>
        </dc:creator>
        <dc:subject>
          <rdf:Bag>
            <rdf:li>arrow</rdf:li>
            <rdf:li>arrows</rdf:li>
            <rdf:li>sign</rdf:li>
          </rdf:Bag>
        </dc:subject>
      </cc:Work>
      <cc:License rdf:about="http://creativecommons.org/licenses/publicdomain/">
        <cc:permits rdf:resource="http://creativecommons.org/ns#Reproduction"/>
        <cc:permits rdf:resource="http://creativecommons.org/ns#Distribution"/>
        <cc:permits rdf:resource="http://creativecommons.org/ns#DerivativeWorks"/>
      </cc:License>
    </rdf:RDF>
  </metadata>
</svg>